<svg xmlns="http://www.w3.org/2000/svg" width="900" height="720" viewBox="0 0 900 720" role="img" aria-labelledby="title desc">
  <title id="title">SupplyBox school supply box artwork</title>
  <desc id="desc">A cheerful SupplyBox logo above a decorated school supply box filled with pencils, rulers, scissors, and crayons.</desc>
  <defs>
    <linearGradient id="card" x1="0" y1="0" x2="1" y2="1">
      <stop offset="0" stop-color="#fffaf0"/>
      <stop offset="1" stop-color="#f8fdff"/>
    </linearGradient>
    <linearGradient id="boxFront" x1="0" y1="0" x2="1" y2="1">
      <stop offset="0" stop-color="#ffd84d"/>
      <stop offset="0.58" stop-color="#ffec9a"/>
      <stop offset="1" stop-color="#35b4cf"/>
    </linearGradient>
    <linearGradient id="boxSide" x1="0" y1="0" x2="1" y2="1">
      <stop offset="0" stop-color="#f3bd35"/>
      <stop offset="1" stop-color="#24a5c2"/>
    </linearGradient>
    <filter id="shadow" x="-20%" y="-20%" width="140%" height="140%">
      <feDropShadow dx="0" dy="22" stdDeviation="20" flood-color="#06192f" flood-opacity="0.25"/>
    </filter>
    <filter id="textShadow" x="-10%" y="-20%" width="120%" height="150%">
      <feDropShadow dx="0" dy="5" stdDeviation="2" flood-color="#102846" flood-opacity="0.28"/>
    </filter>
  </defs>

  <rect width="900" height="720" rx="44" fill="url(#card)"/>
  <circle cx="103" cy="116" r="52" fill="#36abc6" opacity="0.18"/>
  <circle cx="790" cy="116" r="62" fill="#ffc727" opacity="0.24"/>
  <circle cx="132" cy="642" r="72" fill="#ff7b64" opacity="0.19"/>
  <circle cx="790" cy="620" r="80" fill="#35b4cf" opacity="0.18"/>
  <g fill="none" stroke-linecap="round" stroke-width="8" opacity="0.58">
    <path d="M84 238c54-52 96 58 150 2" stroke="#35b4cf"/>
    <path d="M694 214c50 42 90-48 136-5" stroke="#ffc727"/>
    <path d="M655 575c57-56 98 55 150 3" stroke="#ff7b64"/>
  </g>
  <g fill="#ffc727">
    <path d="M150 190l10 24 25 6-25 8-10 24-9-24-25-8 25-6z"/>
    <path d="M740 274l7 17 18 5-18 6-7 18-8-18-18-6 18-5z"/>
    <path d="M785 434l6 14 14 4-14 5-6 14-5-14-15-5 15-4z"/>
  </g>

  <g filter="url(#textShadow)">
    <g transform="translate(450 128)">
      <g transform="translate(-92 -92)">
        <path d="M30 75l62-26 64 26-64 27z" fill="#42c4dc" stroke="#11325b" stroke-width="8" stroke-linejoin="round"/>
        <path d="M30 75v70l62 30v-73z" fill="#1795bc" stroke="#11325b" stroke-width="8" stroke-linejoin="round"/>
        <path d="M156 75v70l-64 30v-73z" fill="#39bad3" stroke="#11325b" stroke-width="8" stroke-linejoin="round"/>
        <g stroke="#11325b" stroke-width="6" stroke-linecap="round">
          <path d="M58 50l-16-46" stroke="#ff7b64"/>
          <path d="M82 40l-4-55" stroke="#ffd23f"/>
          <path d="M111 42l18-51" stroke="#78cf6b"/>
          <path d="M134 55l36-39" stroke="#46b8d6"/>
        </g>
        <circle cx="70" cy="114" r="9" fill="#11325b"/>
        <circle cx="116" cy="114" r="9" fill="#11325b"/>
        <path d="M78 139c13 13 29 13 42 0" fill="none" stroke="#11325b" stroke-width="7" stroke-linecap="round"/>
        <circle cx="48" cy="129" r="10" fill="#ff9aa6" opacity="0.8"/>
        <circle cx="138" cy="129" r="10" fill="#ff9aa6" opacity="0.8"/>
      </g>
      <text x="0" y="138" text-anchor="middle" font-family="Inter, Arial, sans-serif" font-size="86" font-weight="900" letter-spacing="-4">
        <tspan fill="#ffffff" stroke="#11325b" stroke-width="14" paint-order="stroke">Supply</tspan><tspan fill="#ffc727" stroke="#11325b" stroke-width="14" paint-order="stroke">Box</tspan>
      </text>
    </g>
  </g>

  <g filter="url(#shadow)" transform="translate(122 330)">
    <path d="M88 32h438l82 55H164z" fill="#ffe66d" stroke="#11325b" stroke-width="5" stroke-linejoin="round"/>
    <path d="M164 87h444v248H164z" fill="url(#boxFront)" stroke="#11325b" stroke-width="5" stroke-linejoin="round"/>
    <path d="M88 32l76 55v248l-76-58z" fill="url(#boxSide)" stroke="#11325b" stroke-width="5" stroke-linejoin="round"/>
    <path d="M164 87l-76-55h438l82 55z" fill="#ffe984" opacity="0.72"/>
    <path d="M164 260h444v75H164z" fill="#27aeca" opacity="0.9"/>
    <path d="M88 206l76 54v75l-76-58z" fill="#168fb1" opacity="0.85"/>

    <g transform="translate(294 42)">
      <path d="M50 70l52-22 54 22-54 23z" fill="#42c4dc" stroke="#11325b" stroke-width="6" stroke-linejoin="round"/>
      <path d="M50 70v64l52 26V93z" fill="#1795bc" stroke="#11325b" stroke-width="6" stroke-linejoin="round"/>
      <path d="M156 70v64l-54 26V93z" fill="#39bad3" stroke="#11325b" stroke-width="6" stroke-linejoin="round"/>
      <g stroke="#11325b" stroke-width="5" stroke-linecap="round">
        <path d="M71 46l-18-58" stroke="#ff7b64"/>
        <path d="M96 37l-7-66" stroke="#ffd23f"/>
        <path d="M121 40l22-59" stroke="#78cf6b"/>
        <path d="M143 54l40-42" stroke="#46b8d6"/>
      </g>
      <circle cx="82" cy="105" r="8" fill="#11325b"/>
      <circle cx="126" cy="105" r="8" fill="#11325b"/>
      <path d="M91 130c11 10 26 10 37 0" fill="none" stroke="#11325b" stroke-width="6" stroke-linecap="round"/>
    </g>

    <text x="386" y="210" text-anchor="middle" font-family="Inter, Arial, sans-serif" font-size="74" font-weight="900" letter-spacing="-3">
      <tspan fill="#ffffff" stroke="#11325b" stroke-width="12" paint-order="stroke">Supply</tspan><tspan fill="#ffc727" stroke="#11325b" stroke-width="12" paint-order="stroke">Box</tspan>
    </text>
    <text x="386" y="246" text-anchor="middle" font-family="Inter, Arial, sans-serif" font-size="24" font-weight="800" fill="#11325b">School essentials. Equal opportunities.</text>
    <text x="386" y="310" text-anchor="middle" font-family="Inter, Arial, sans-serif" font-size="19" font-weight="700" fill="#ffffff">Edmonton families • Launch support • Community powered</text>

    <g transform="translate(30 120)">
      <path d="M25 150l34-128" stroke="#11325b" stroke-width="6"/>
      <path d="M18 156l33-126 25 7-34 126z" fill="#ff7b64" stroke="#11325b" stroke-width="4"/>
      <path d="M72 166l13-116 30 4-14 116z" fill="#ffd23f" stroke="#11325b" stroke-width="4"/>
      <path d="M118 168l-4-116 30-1 5 116z" fill="#78cf6b" stroke="#11325b" stroke-width="4"/>
    </g>
  </g>
</svg>
